<?xml version="1.0" encoding="UTF-8"?>
<!DOCTYPE svg  PUBLIC '-//W3C//DTD SVG 1.1//EN'  'http://www.w3.org/Graphics/SVG/1.1/DTD/svg11.dtd'>
<svg width="70.836" height="60.211" enable-background="new -14.8431 -352.9161 843.8431 1709.6875" version="1.1" viewBox="-14.8431 -352.9161 843.8431 1709.6875" xml:space="preserve" xmlns="http://www.w3.org/2000/svg">
	<path d="m264.63-289.56c34.741-7.9843 70.94-10.837 106.4-6.4596 33.167 7.5252 65.317 21.969 90.926 44.66 23.166 24.068 42.791 53.07 49.545 86.27 3.4921 18.166 4.0168 36.872 2.8855 55.283l-1.1148 0.8197c-10.903-3.2462-19.969-10.394-28.691-17.395-6.4431-5.2136-11.772-11.558-16.69-18.166-1.6887-2.6724-4.7054 0.0984-6.7055 0.8033-12.247 7.0334-25.396 12.329-37.462 19.69-31.117 17.575-66.744 24.068-101.66 29.248 7.4596-8.3778 15.477-16.575 20.395-26.789 1.0984-2.1969 0.6394-4.7709 0-7.017-3.2134-2.033-7.1154-1.164-10.542-0.3115-17.641 5.3283-34.675 14.673-46.447 29.117-8.9352 13.1-13.231 28.871-13.985 44.627-4.443-11.198-10.821-22.084-21.067-28.888-9.4598-5.9022-21.215-4.4594-31.79-3.8692-8.0663 2.3117-13.936 8.968-19.969 14.444-8.8369 8.0827-11.985 20.854-10.558 32.429 3.197 13.673 13.247 24.461 23.887 33.019 7.3613 6.0005 15.919 10.198 23.772 15.46-3.1806 8.4433-8.181 16.1-12.919 23.74-5.3283 6.8531-11.066 13.509-14.395 21.641-2.0985 1.7051-4.607-0.541-6.5908-1.3116-7.2793-3.9348-13.116-9.9025-19.264-15.313-9.7057-8.8368-20.297-16.788-28.888-26.773-11.411-13.198-21.936-27.56-28.314-43.922-8.5089-19.51-13.575-40.594-14.378-61.874 0.1803-15.723 2.0002-31.429 5.3119-46.791 6.9022-25.396 20.1-48.398 33.577-70.793 7.7383-13.132 18.756-23.904 30.117-33.888 6.0333-4.361 10.886-10.476 17.952-13.28 22.035-9.853 42.774-23.313 66.661-28.412z" fill="#3D3D3D" stroke="#3D3D3D" stroke-width=".4918"/>
	<path d="m461.18-143.75c2.0002-0.705 5.0169-3.4757 6.7055-0.8033 4.9185 6.6071 10.247 12.952 16.69 18.166 8.7221 7.0006 17.788 14.149 28.691 17.395 0.8361 8.2794-1.3116 16.378-2.3117 24.543-2.0166 11.247-1.5576 22.723-2.656 34.068-1.246 9.2303 0.4427 18.543-0.5902 27.789-1.328 10.345 0.2459 20.74 0.1148 31.117-0.0164 5.6234 1.9674 10.935 3.2298 16.362-1.2788 7.2301-1.951 14.886-5.7874 21.346-14.723 25.182-33.675 48.66-58.497 64.481-5.6398 4.0495-11.493 8.2794-18.592 9.1484-40.676 3.2297-81.023-4.8365-120.98-11.345 0.6066 6.1973 1.7051 12.329 2.7871 18.461-1.8034 7.9843-6.2792 15.001-11.722 21.002-1.3116 1.4427-2.5904 2.9019-3.7872 4.443-2.2297-5.4595-8.804-5.9513-13.624-7.8695-20.395-5.7874-40.856-12.837-58.12-25.494-7.6072-4.3446-13.198-11.198-20.215-16.296 2.1477-1.0165 5.8201-1.0821 5.689-4.2954 1.8526-15.165 0.7378-30.462 0.2296-45.676 3.3282-8.1318 9.0663-14.788 14.395-21.641 4.7381-7.64 9.7385-15.296 12.919-23.74-7.8531-5.2628-16.411-9.4598-23.772-15.46-10.64-8.5581-20.69-19.346-23.887-33.019-1.4263-11.575 1.7214-24.346 10.558-32.429 6.0333-5.4759 11.903-12.132 19.969-14.444 10.575-0.5902 22.33-2.033 31.79 3.8692 10.247 6.8039 16.624 17.69 21.067 28.888 0.7542-15.755 5.0496-31.527 13.985-44.627 11.772-14.444 28.806-23.789 46.447-29.117 3.4265-0.8525 7.3285-1.7215 10.542 0.3115 0.6394 2.2461 1.0984 4.8201 0 7.017-4.9185 10.214-12.936 18.411-20.395 26.789 34.921-5.1808 70.547-11.673 101.66-29.248 12.066-7.3613 25.215-12.657 37.462-19.69z" fill="#F8C5B0" stroke="#F8C5B0" stroke-width=".4918"/>
	<path d="m743.49 100.8c13.394-11.05 26.838-22.281 42.446-30.085 5.3611-1.5411 9.8698 2.7707 13.067 6.5088 3.5576 3.5577 3.2297 9.4106 1.7707 13.821-5.6235 8.9352-11.722 17.608-17.985 26.117-11.739 13.788-22.264 28.724-36.036 40.626 13.772 14.624 20.838 34.347 22.953 54.07 1.4919 15.706-2.3444 32.659-13.722 44.135-9.7549 11.165-22.789 19.739-37.544 22.281-12.526 0.8853-24.838-1.8362-37.102-3.738-0.5082 1.4591-0.9508 2.951-1.3279 4.4594-0.3771-0.9509-1.1477-2.8363-1.5247-3.7708-5.312-3.115-11.575-4.5578-16.296-8.6892-12.313-10.198-22.412-22.838-30.937-36.298-5.8694-8.4106-11.362-17.149-14.936-26.806 0.2296-16.575 5.8694-32.74 13.87-47.086 9.427-11.362 20.395-22.69 34.839-27.33 9.3615-2.6724 19.166-4.3283 28.937-3.7053 6.1317-0.0164 10.739 4.7545 16.28 6.7219 2.8199-1.6559 4.3611-4.7545 6.6235-7.0662 7.7054-9.2795 17.674-16.182 26.625-24.166z" fill="#F8C5B0" stroke="#F8C5B0" stroke-width=".4918"/>
	<path d="m182.44 128.26c6.5579-8.6073 11.821-18.33 20.084-25.494 7.017 5.0988 12.608 11.952 20.215 16.296 17.264 12.657 37.724 19.707 58.12 25.494 4.8201 1.9182 11.394 2.41 13.624 7.8695-5.771 10.591-13.558 19.838-20.084 29.921 8.1646 7.0662 11.87 17.444 17.788 26.215 3.0986 5.6071 7.7711 10.493 9.4762 16.756-0.3607 6.7219-3.0002 13.083-3.7216 19.772-3.8364 28.248-6.2628 56.677-8.6237 85.089-4.4266-6.1481-10.558-10.935-14.018-17.788-17.149-26.855-33.806-54.054-49.25-81.925-2.9511-6.6563-6.2956-13.132-10.001-19.395-9.0499-17.28-17.149-35.052-26.838-52.004-3.6888-6.9514-7.1646-14.018-10.591-21.1-1.2951-3.869 1.8363-6.8201 3.8201-9.7056z" fill="#fff" stroke="#fff" stroke-width=".4918"/>
	<path d="m309.99 126.98l1.0657-1.5411c6.0333-0.5902 11.296 2.7543 16.575 5.148 6.2956 3.0986 12.526 6.5416 17.87 11.148 2.6724 2.9675 6.1972 5.6562 7.1317 9.7385 2.6396 11.165 4.7382 22.559 4.5578 34.068-0.3115 15.362 1.3936 30.708-0.0656 46.053-2.1477 22.149 0.6394 44.643-4.0659 66.563-11.034-22.264-17.952-46.332-29.757-68.252-1.7379-3.279-4.2299-6.8694-2.3608-10.673 5.0332-14.706 6.7219-30.478 13.427-44.61-9.9681-11.394-24.166-17.674-36.102-26.642 5.4431-6.0004 9.9189-13.017 11.722-21.002z" fill="#fff" stroke="#fff" stroke-width=".4918"/>
	<path d="m148.83 148.84c9.9845-3.4265 19.313-9.0336 29.79-10.87 3.4265 7.0826 6.9022 14.149 10.591 21.1 9.6894 16.952 17.788 34.724 26.838 52.004 3.7052 6.2628 7.0498 12.739 10.001 19.395 15.444 27.871 32.101 55.07 49.25 81.925 3.4593 6.853 9.591 11.64 14.018 17.788 15.313 19.051 29.708 38.889 46.643 56.579 3.8364-7.64 4.7545-16.247 6.5907-24.478 5.3611-20.985 9.7057-42.43 10.509-64.12 4.7053-21.92 1.9182-44.414 4.0659-66.563 1.4592-15.346-0.2459-30.691 0.0656-46.053 0.1804-11.509-1.9182-22.904-4.5578-34.068-0.9345-4.0824-4.4594-6.7711-7.1317-9.7385 4.361-3.5905 10.28-0.6722 15.198 0.0164 10.558 1.7543 20.51 5.6562 30.822 8.3614 6.6727 2.6396 13.821 5.3939 18.379 11.247 18.821 21.904 32.15 47.742 47.939 71.777 9.345 15.706 18.624 31.478 28.461 46.906 2.8691 4.4266 5.3939 9.1319 9.0172 13.018 14.444-13.231 28.642-26.789 44.02-38.987 8.4925-6.853 17.444-13.116 25.92-20.002 3.738-2.7543 7.2793-6.1152 11.886-7.3449 1.787 6.7219 4.4102 13.181 6.6563 19.756 3.6397 11.46 11.657 20.838 19.772 29.445 13.837 12.985 27.674 27.248 45.807 34.036 4.4266 2.0821 9.0991 4.0659 12.624 7.5744 1.6066 6.4268-3.4102 11.46-7.1154 16.001-8.9024 9.6565-18.083 19.084-27.691 28.068-11.181 11.247-21.723 23.1-33.298 33.954-8.0991 8.0827-17.297 14.936-25.428 23.002-20.297-6.0169-39.758-14.509-59.677-21.625-19.526-7.0662-38.741-15.018-58.448-21.543-2.0821-1.5739-3.0002-1.0657-2.7379 1.5247-17.87 39.266-34.298 79.171-52.152 118.45-10.804-0.7377-21.625 0.6558-31.872 4.1643-16.772 4.3938-33.331 9.4926-50.119 13.804-6.6071 1.9182-12.739 5.1152-18.952 8.0498-5.312-7.0825-13.345-11.558-21.28-15.132-6.8858-3.0003-11.427 4.9021-14.903 9.509-10.788 17.985-17.231 38.118-24.117 57.808-2.1478 7.3284-4.8693 14.526-6.1481 22.084-1.1312 5.0332 4.0823 7.9187 7.5252 10.427 6.9514 3.6888 14.296 8.2302 22.494 7.4761 7.1645 4.6234 12.854 11.214 20.412 15.313 17.739 10.034 36.97 17.051 56.103 23.92-3.8856 4.4102-7.0334 9.7877-7.1809 15.821 0 5.5907 3.0658 10.526 5.3611 15.444 0.623 0.7542 1.869 2.2788 2.4756 3.033 0.2787 0.7706 0.8034 2.3118 1.0821 3.0823-0.6394 2.492 0.5902 5.2955 3.279 5.8857 39.266 17.133 79.45 32.15 118.55 49.627 1.951 7.7056 2.2953 15.69 3.4921 23.543 5.0497 26.281 8.2958 52.923 10.263 79.614 2.5412 19.952 2.0493 40.167 5.1152 60.054-0.2623 44.364 4.6069 88.795 14.132 132.13 5.0005 19.247 7.8204 38.987 11.919 58.431 2.7871 11.28 3.9348 22.871 6.5907 34.183 2.2461 10.23 5.0824 20.428 5.9677 30.904-0.377 0.7869-1.1148 2.3772-1.4919 3.1807-10.427 8.4268-23.625 11.886-36.347 15.132-15.132 3.8856-30.806 4.6069-46.316 5.4923-10.378 0.6066-20.772 0.541-31.134-0.2787-5.312-0.623-12.968-1.0658-14.444-7.4597-9.4599-30.38-13.149-62.12-19.772-93.172-8.2466-46.676-18.231-93.139-22.756-140.37-4.2791-20.92 1.5739-42.069-0.623-63.104-0.8689-31.904-4.6561-63.71-11.099-94.975-2.4592-9.6075-4.3282-19.346-6.0005-29.101-8.8533 1.7543-17.674 3.902-26.789 3.279-2.9347 5.23-2.6068 11.542-3.6397 17.297-5.7382 53.808-9.6237 107.98-20.576 161.05-1.6723 9.3123-1.1805 18.92-3.3938 28.15-6.5087 27.461-9.8369 55.579-11.345 83.761-3.4429 34.659-4.9021 69.53-4.0495 104.35 0.6886 12.198 1.6887 24.428 1.5739 36.642-2.9019 1.9346-5.9513 3.8036-9.4435 4.4595-30.56 5.8365-61.776 8.9515-92.893 7.394-8.1646-0.1968-15.51-3.8691-22.986-6.6564-0.4263 0.5247-1.2952 1.574-1.7214 2.0986-1.7051-3.5249-4.361-6.8695-4.1643-10.968-0.1476-51.398-1.2296-102.84 0.5902-154.23-0.0492-11.444-0.2459-22.904 1.0001-34.282 1.9018-19.92 1.1148-40.922 9.9681-59.349 3.6069-11.493 4.6398-23.592 6.1809-35.478 3.3281-39.462 3.82-79.171 1.1312-118.68-1.2296-14.673-3.0822-29.265-4.1315-43.955-10.296-0.705-20.625-0.8361-30.872-2.033-4.9512-0.541-9.7057-2.5904-13.608-5.6398-1.7215-11.083 0.3115-22.297 0.7542-33.396 1.4427-37.151 2.6396-74.351 5.8038-111.4-0.4754-14.247 2.9019-28.199 3.8036-42.315-8.5745-7.4925-18.215-13.706-27.199-20.707-18.592-15.165-37.266-30.265-54.792-46.692-4.5414-3.2462-6.1153-8.8204-7.3613-13.952-6.394-29.921-5.0988-60.661-4.9513-91.057 1.1476-30.544 1.0821-61.317 6.4104-91.516 3.2462-20.051 8.6237-39.676 14.444-59.104 2.2461-8.1482 3.3937-17.231 8.9516-23.904 14.755-11.821 32.298-19.215 48.66-28.445 18.739-9.7717 38.675-16.838 57.808-25.773z" fill="#0C2343" stroke="#0C2343" stroke-width=".4918"/>
	<path d="m294.48 152.43c1.1968-1.5411 2.4756-3.0002 3.7872-4.443 11.936 8.968 26.133 15.247 36.102 26.642-6.7055 14.132-8.3942 29.904-13.427 44.61-1.869 3.8036 0.623 7.3941 2.3608 10.673 11.804 21.92 18.723 45.988 29.757 68.252-0.8033 21.69-5.148 43.135-10.509 64.12-1.8362 8.2302-2.7543 16.838-6.5907 24.478-16.936-17.69-31.331-37.528-46.643-56.579 2.3609-28.412 4.7873-56.841 8.6237-85.089 0.7214-6.6891 3.3609-13.05 3.7216-19.772-1.7051-6.2628-6.3776-11.148-9.4762-16.756-5.9185-8.7712-9.6238-19.149-17.788-26.215 6.5252-10.083 14.313-19.33 20.084-29.921z" fill="#FB6600" stroke="#FB6600" stroke-width=".4918"/>
	<path d="m609.3 204.12c1.9674-1.4427 4.8036-1.869 7.017-0.6886 3.5741 9.6566 9.0663 18.395 14.936 26.806 8.5253 13.46 18.624 26.101 30.937 36.298 4.7217 4.1315 10.985 5.5742 16.296 8.6892 0.377 0.9345 1.1476 2.8199 1.5247 3.7708-4.7217 7.4596-11.952 12.739-17.952 19.1-4.2955 3.8692-8.1482 8.2466-12.673 11.87-18.133-6.7874-31.97-21.051-45.807-34.036-8.1155-8.6073-16.132-17.985-19.772-29.445-2.2461-6.5744-4.8693-13.034-6.6563-19.756 4.7217-4.9349 11.034-7.7876 16.542-11.706 5.2792-3.5249 10.23-7.5252 15.608-10.903z" fill="#fff" stroke="#fff" stroke-width=".4918"/>
	<path d="m447.61 376.92c-0.2623-2.5904 0.6558-3.0986 2.7379-1.5247-0.6885 0.3772-2.0493 1.1477-2.7379 1.5247z" enable-background="new    " fill="#481B12" opacity=".53" stroke="#481B12" stroke-width=".4918"/>
	<path d="m450.35 375.4c19.707 6.5251 38.921 14.477 58.448 21.543 19.92 7.1154 39.38 15.608 59.677 21.625 23.248 8.6565 46.43 17.477 69.678 26.15 6.7219 2.2789 14.427 4.4922 18.198 11.116 5.1971 8.7385 13.214 15.395 18.379 24.117 2.6887 9.2959-2.6724 17.936-6.2957 26.117-21.936 54.447-44.824 108.5-66.727 162.96-7.5908 16.264-13.182 33.38-20.707 49.676-5.8693 13.886-10.853 28.134-17.214 41.807-2.8363 6.1317-4.5086 12.837-8.0499 18.641-2.2133 1.3607-5.0824 0.9508-7.3449-0.0164-6.1973-8.9024-10.575-19.018-17.1-27.658-15.001-6.5089-30.494-12.05-45.627-18.346-39.053-15.313-77.613-31.839-116.68-47.119-13.837-5.853-28.199-10.493-41.561-17.395 0.1476-6.0333 3.2954-11.411 7.1809-15.821 24.756 8.9679 50.972 12.788 77.121 14.739 8.0335 0.3279 16.92 0.9509 23.838-3.9839 10.083-7.0497 18.297-17.493 21.346-29.527 2.8855-11.608-2.4428-23.084-7.722-33.15-11.296-22.444-29.56-40.397-48.824-56.103-6.1972-5.0333-13.296-8.7712-19.657-13.542 3.7053-12.394 10.23-23.756 14.755-35.856 17.854-39.282 34.282-79.187 52.152-118.45 0.6887-0.3772 2.0495-1.1477 2.7381-1.5248m12.411 59.267c-3.2298 6.6235-6.4268 13.247-9.9845 19.707 8.0498 3.8692 16.69 6.2464 24.937 9.6401 30.429 12.214 60.923 24.314 91.336 36.56 1.9674 0.5574 4.0003 1.869 6.1317 1.2296 2.9347-7.4433 5.4923-15.034 8.345-22.51-10.608-1.9673-20.166-7.1973-30.38-10.427-16.395-6.6891-33.085-12.558-49.48-19.198-13.804-4.5411-26.871-11.198-40.905-15.001z" fill="#CD3D00" stroke="#CD3D00" stroke-width=".8064"/>
	<path d="m462.76 434.66c14.034 3.8036 27.101 10.46 40.905 15.001 16.395 6.6399 33.085 12.509 49.48 19.198 10.214 3.2298 19.772 8.4597 30.38 10.427-2.8527 7.476-5.4103 15.067-8.345 22.51-2.1313 0.6394-4.1642-0.6722-6.1317-1.2296-30.412-12.247-60.907-24.346-91.336-36.56-8.2466-3.3937-16.887-5.771-24.937-9.6401 3.5577-6.4597 6.7547-13.083 9.9845-19.707z" fill="#fff" stroke="#fff" stroke-width=".4918"/>
	<path d="m363.59 499.54c10.247-3.5085 21.067-4.902 31.872-4.1643-4.525 12.099-11.05 23.461-14.755 35.856 6.3612 4.7709 13.46 8.5089 19.657 13.542 19.264 15.706 37.528 33.659 48.824 56.103 5.2791 10.066 10.608 21.543 7.722 33.15-3.0495 12.034-11.263 22.477-21.346 29.527-6.9186 4.9349-15.805 4.3118-23.838 3.9839-26.15-1.951-52.365-5.7711-77.121-14.739-19.133-6.8694-38.364-13.886-56.103-23.92-7.558-4.0987-13.247-10.689-20.412-15.313 8.017-28.38 14.575-57.661 29.314-83.532 1.9674-3.197 4.5414-5.9514 7.1154-8.6401 6.2136-2.9346 12.345-6.1317 18.952-8.0498 16.788-4.3117 33.347-9.4105 50.119-13.804z" fill="#F8C5B0" stroke="#F8C5B0" stroke-width=".4918"/>
	<path d="m258.33 515.77c3.4757-4.6069 8.0171-12.509 14.903-9.509 7.9351 3.5741 15.969 8.0499 21.28 15.132-2.574 2.6888-5.148 5.4431-7.1154 8.6401-14.739 25.871-21.297 55.152-29.314 83.532-8.1974 0.7541-15.542-3.7872-22.494-7.4761-3.4429-2.5085-8.6565-5.394-7.5252-10.427 1.2788-7.558 4.0003-14.755 6.1481-22.084 6.8857-19.69 13.329-39.823 24.117-57.808z" fill="#fff" stroke="#fff" stroke-width=".4918"/>
	<path d="m332.78 684.06c-2.2953-4.9185-5.3611-9.8533-5.3611-15.444 13.362 6.9022 27.724 11.542 41.561 17.395 39.069 15.28 77.63 31.806 116.68 47.119 15.132 6.2955 30.626 11.837 45.627 18.346 6.5252 8.64 10.903 18.756 17.1 27.658-6.4596-1.5247-13.165-1.9674-19.461-4.0004-23.461-10.099-47.283-19.379-70.76-29.445-39.102-17.477-79.286-32.495-118.55-49.627 0.1475-2.4756-1.1968-4.6561-3.279-5.8857-0.2787-0.7705-0.8033-2.3116-1.0821-3.0823-0.6066-0.7542-1.8525-2.2789-2.4756-3.033z" fill="#E7E7E7" stroke="#E7E7E7" stroke-width=".4918"/>
	<path d="m477.81 1182.9c12.722-3.2461 25.92-6.7056 36.347-15.132 10.985 13.099 24.642 23.953 39.987 31.511 13.067 8.2631 28.56 10.493 43.397 13.526 10.722 1.8855 21.526 3.7217 32.445 3.525 7.099-0.3936 12.411 5.2462 16.198 10.525 5.9186 9.8534 4.5578 21.805 5.5907 32.79 1.1148 5.558-3.2463 9.755-6.476 13.657-4.8529 5.7709-12.509 7.6564-19.215 10.362-28.658 10.312-59.513 10.198-89.565 9.7878-12.624-0.6067-25.461-0.6722-37.642-4.525-10.64-3.3938-21.723-5.2955-32.904-5.1152-13.067 1.1312-26.15 2.2789-39.233 3.1642-7.3613 0.623-15.001-0.754-21.379-4.5576-4.1151-5.1481-5.3447-11.87-6.558-18.166-2.2133-13.46-2.7871-27.166-2.2297-40.79-0.2951-11.87 1.0328-23.805 3.7872-35.347 10.362 0.8197 20.756 0.8853 31.134 0.2787 15.509-0.8856 31.183-1.6069 46.315-5.4925z" fill="#2C2C2C" stroke="#2C2C2C" stroke-width=".4918"/>
	<path d="m248 1198.9c3.4921-0.6559 6.5416-2.5249 9.4435-4.4595 2.5248 3.8691 4.984 8.0171 9.1155 10.427 17.28 11.099 35.282 21.215 54.152 29.347 6.2301 3.1807 14.395 1.2788 19.51 6.6892 5.689 4.361 6.7875 11.87 7.4597 18.542 0.3935 5.9349 1.0656 11.952 0.3443 17.92-4.525 8.0171-12.444 14.69-21.674 16.378-28.281 6.4432-57.612 10.804-86.548 6.4596-7.7711-1.4427-15.805-0.9344-23.51-2.7379-14.247-4.9185-28.134-13.509-43.742-12.231-8.7713 0.2787-17.575 1.1477-26.363 0.4918-5.9185-0.1638-11.001-4.8691-12.509-10.46-6.3448-15.903-6.5415-33.265-6.312-50.119 0.3935-7.853 0.0164-16.001 3.0331-23.412 0.4263-0.5247 1.2952-1.574 1.7214-2.0986 7.476 2.7872 14.821 6.4596 22.986 6.6564 31.117 1.5573 62.333-1.5577 92.893-7.3942z" fill="#2C2C2C" stroke="#2C2C2C" stroke-width=".4918"/>
</svg>
