<?xml version="1.0" encoding="UTF-8"?>
<svg viewBox="0 0 697.66992 706.98071" xmlns="http://www.w3.org/2000/svg" xmlns:xlink="http://www.w3.org/1999/xlink" width="70.836" height="60.211">
 <defs>
  <linearGradient id="b">
   <stop stop-color="#ffae08" offset="0"/>
   <stop stop-color="#ffa608" stop-opacity=".49804" offset=".5"/>
   <stop stop-color="#ff7b08" stop-opacity=".24706" offset=".5"/>
   <stop stop-color="#e07608" stop-opacity=".12157" offset=".875"/>
   <stop stop-color="#ef7308" stop-opacity=".05882" offset=".875"/>
   <stop stop-color="#ff7108" stop-opacity="0" offset="1"/>
  </linearGradient>
  <linearGradient id="a">
   <stop offset="0"/>
   <stop stop-color="#eecac7" stop-opacity="0" offset="1"/>
  </linearGradient>
  <linearGradient id="h" x1="-471.34" x2="-123.34" y1="540.54" y2="623.45" gradientTransform="matrix(1.4454 0 0 1.1001 53.828 -58.3)" gradientUnits="userSpaceOnUse" xlink:href="#b"/>
  <linearGradient id="g" x1="-395.14" x2="-174.11" y1="625.43" y2="636.74" gradientTransform="matrix(-1.4095 -.12486 0 1.0316 221.36 -43.041)" gradientUnits="userSpaceOnUse" xlink:href="#b"/>
  <linearGradient id="f" x1="-176.79" x2="445.86" y1="581.6" y2="216.4" gradientUnits="userSpaceOnUse" xlink:href="#a"/>
  <linearGradient id="e" x1="-389.44" x2="-544.08" y1="781.41" y2="474.42" gradientTransform="matrix(-1.0403 -.092117 0 1 -26.694 4.0915e-5)" gradientUnits="userSpaceOnUse" xlink:href="#a"/>
  <linearGradient id="d" x1="248.87" x2="405" y1="747.41" y2="663.93" gradientUnits="userSpaceOnUse" xlink:href="#a"/>
  <linearGradient id="c" x1="-85.038" x2="-288.01" y1="710.21" y2="557.22" gradientTransform="matrix(-1.4393 -.13377 0 1.1053 -58.071 -65.142)" gradientUnits="userSpaceOnUse" xlink:href="#a"/>
 </defs>
 <g transform="translate(-20.834 -115.88)">
  <path d="m371.25 152.22-2.875 0.0625c-87.252 2.2777-159.8 62.301-183.12 143.5-1.7965-1.9498-4.8687-2.9247-9.8125-2.8438h-0.5625c-21.189 0.80675-37.983 26.736-37.75 58.25 0.23549 31.81 17.794 57.35 39.188 57 3.677-0.06018 6.296-1.071 8.125-2.8438 23.116 85.284 100.27 147.55 191.12 146.53 88.093-0.98848 162.01-61.175 185.81-143.03 1.3888 0.52562 3.0369 0.81213 4.9688 0.84375 21.394 0.35013 38.952-25.19 39.188-57 0.23331-31.514-16.592-57.443-37.781-58.25h-0.5625c-2.38-0.03895-4.2973 0.182-5.875 0.625-24.314-83.386-100.53-143.85-190.06-142.84z" fill="#fca" fill-rule="evenodd" stroke="#000" stroke-linecap="round" stroke-linejoin="round" stroke-width="4.7532"/>
  <path d="m371.25 152.22-2.875 0.0625c-87.252 2.2777-159.8 62.301-183.12 143.5-1.7965-1.9498-4.8687-2.9247-9.8125-2.8438h-0.5625c-21.189 0.80675-37.983 26.736-37.75 58.25 0.23549 31.81 17.794 57.35 39.188 57 3.677-0.06018 6.296-1.071 8.125-2.8438 23.116 85.284 100.27 147.55 191.12 146.53 88.093-0.98848 162.01-61.175 185.81-143.03 1.3888 0.52562 3.0369 0.81213 4.9688 0.84375 21.394 0.35013 38.952-25.19 39.188-57 0.23331-31.514-16.592-57.443-37.781-58.25h-0.5625c-2.38-0.03895-4.2973 0.182-5.875 0.625-24.314-83.386-100.53-143.85-190.06-142.84z" fill="url(#f)" fill-rule="evenodd" stroke="#000" stroke-linecap="round" stroke-linejoin="round" stroke-width="4.7532"/>
  <path d="m581.35 262.99c0.90432 8.2027 1.0581 14.546-7.4536 20.956-6.7987 5.1201-8.4808 11.742-17.889 16.466-6.8634 3.4458-18.738 4.4906-26.833 4.4906-10.326 0-16.6-0.84954-23.852-4.4906-10.141-5.0912-10.736-6.2902-17.889-13.472-6.6633-6.6908-8.7297-13.256-13.417-17.963-7.2234-7.2533-12.558-11.113-17.889-16.466-7.0378-7.0669-26.583 2.8682-32.796 5.9875-8.311 4.1727-15.259 9.3341-22.361 16.466-8.5476 8.5829-22.471 13.239-32.796 19.46-8.1964 4.9381-20.965 7.8561-26.833 0-7.1372-9.5555 1.4184-14.896 7.4537-20.956 6.7762-6.8042-1.4574-17.929-4.4722-20.956-4.3672-4.3852-17.815-0.76705-20.87 0-6.4943 1.6302-16.454 13.5-22.361 16.466-6.1788 3.1022-11.212 5.2711-14.907 8.9813-3.197 3.2102-24.8 8.3691-28.324 7.4845-4.7152-1.1837 24.972-35.27 16.398-37.422-10.336-2.5948-43.547 21.569-50.685 26.944-7.5 5.6483-8.0116 27.113-16.398 31.435-8.7137 4.4907-4.2274-1.4969-16.398-1.4969-9.2138 0-12.78-7.9212-14.907-16.466-2.0802-8.3551-1.6767-18.091-1.4907-26.944 0.21915-10.436 21.659-48.282 22.361-49.397 6.944-11.041-0.11458-3.5465 13.417-8.9814 11.436-4.5933 11.935-21.338 19.38-26.944 9.3683-7.0553 19.162-10.042 23.852-19.46 3.9298-7.892 17.079-4.8325 25.342-8.9814 13.244-6.6495 24.847-10.878 38.759-16.466 26.462-10.628 53.157-9.6188 90.935-10.478 14.682-0.34771 50.536-21.731 102.86 32.932 10.101 10.553 29.121 34.08 41.741 40.416 11.615 5.8316-0.88708 18.569 5.9629 25.447 4.9294 4.9497 13.417 22.91 13.417 29.938 0 8.5622 0.10656 9.9223 8.9444 13.472z" fill-rule="evenodd" stroke="#000" stroke-width="1.0022"/>
  <path transform="matrix(.75163 0 0 .70141 235.91 64.622)" d="m86.536 363.71a60.369 59.624 0 1 1 -0.88096 0.01592" fill="#fff" fill-rule="evenodd" stroke="#000" stroke-linecap="round" stroke-linejoin="round" stroke-width="4.743"/>
  <path transform="matrix(.75163 0 0 .70141 357.79 62.613)" d="m86.536 363.71a60.369 59.624 0 1 1 -0.88096 0.01592" fill="#fff" fill-rule="evenodd" stroke="#000" stroke-linecap="round" stroke-linejoin="round" stroke-width="4.743"/>
  <path transform="matrix(1.0001 0 0 1.0042 375.63 -86.77)" d="m-81.361 450.16a11.179 9.6889 0 1 1 -0.16314 0.00259" fill="#000300" fill-rule="evenodd" stroke="#000" stroke-linecap="round" stroke-linejoin="round" stroke-width="4.743"/>
  <path transform="matrix(1.0001 0 0 1.0042 499.36 -88.779)" d="m-81.361 450.16a11.179 9.6889 0 1 1 -0.16314 0.00259" fill="#000300" fill-rule="evenodd" stroke="#000" stroke-linecap="round" stroke-linejoin="round" stroke-width="4.743"/>
  <path d="m256.01 318.46c6.9022-3.2744 13.36-10.921 23.159-13.381 10.58-2.6559 24.079-3.9043 32.721-4.1586 3.5843-0.1055 14.05 13.247 14.907 14.969" fill="none" stroke="#000" stroke-width="4.6099"/>
  <path d="m462.36 315.4c-6.9022-3.2744-13.36-10.921-23.159-13.381-10.58-2.6559-24.079-3.9043-32.721-4.1586-3.5843-0.1055-14.05 13.247-14.907 14.969" fill="none" stroke="#000" stroke-width="4.6099"/>
  <path d="m347.82 372.58c-8.6732 7.0833-12.649 22.281-12.649 38.105 0 13.241 3.4158 19.052 16.866 19.052 6.4164 0 7.5516-5.4658 10.541-8.4677" fill="none" stroke="#000" stroke-width="3.0065"/>
  <path d="m345.71 361.99c4.9933-12.842 31.22-15.007 31.367-2.3517" fill="none" stroke="#000" stroke-width="5.0108"/>
  <path d="m257.86 352.8c-2.9948 0.39629-12.797-8.0773-19.38-9.7298-5.4955-1.3796-12.178-7.4869-17.143-10.478-5.4598-3.2894-10.369-8.4923-14.907-11.227-3.8626-2.3271-8.5931-5.2821-10.435-8.9813-1.7496-3.5136-6.4941-5.7725-8.199-7.4844-1.7633-1.7706-1.5808-3.039-4.4722-4.4906" fill="none" stroke="#000" stroke-width="3.0065"/>
  <path d="m466.57 355.05c2.9948 0.39628 12.797-8.0774 19.379-9.7298 5.4955-1.3796 12.178-7.4869 17.143-10.478 5.4598-3.2894 10.369-8.4923 14.907-11.227 3.8626-2.3272 8.5931-5.2821 10.435-8.9813 1.7495-3.5137 6.4941-5.7725 8.199-7.4845 1.7633-1.7705 1.5808-3.0389 4.4722-4.4906" fill="none" stroke="#000" stroke-width="3.0065"/>
  <path d="m291.41 471.06c7.9885 5.802 22.12 9.4466 33.541 12.723 7.482 2.1466 18.908 0 26.833 0 9.5101 0 19.406 0.74848 29.069 0.74848h34.287c2.3512 0 3.8163-0.39672 5.2176-0.74848" fill="none" stroke="#000" stroke-width="2.9062"/>
  <path transform="matrix(-.99592 -.090243 0 1 0 0)" d="m-325.53 472.37h176.17a26.425 19.481 0 0 1 26.425 19.481v266.45a26.425 19.481 0 0 1 -26.425 19.481h-176.17a26.425 19.481 0 0 1 -26.425 -19.481v-266.45a26.425 19.481 0 0 1 26.425 -19.481" fill="#fff8ff" fill-rule="evenodd" stroke="#000" stroke-linecap="round" stroke-linejoin="round" stroke-width="1.0151"/>
  <path transform="matrix(-.99592 -.090243 0 1 0 0)" d="m-327.29 476.14h176.16a26.425 19.481 0 0 1 26.425 19.481v266.45a26.425 19.481 0 0 1 -26.425 19.481h-176.16a26.425 19.481 0 0 1 -26.425 -19.481v-266.45a26.425 19.481 0 0 1 26.425 -19.481" fill="#fff8ff" fill-rule="evenodd" stroke="#000" stroke-linecap="round" stroke-linejoin="round" stroke-width="1.0151"/>
  <path transform="matrix(-.99592 -.090243 0 1 0 0)" d="m-327.29 476.14h176.16a26.425 19.481 0 0 1 26.425 19.481v266.45a26.425 19.481 0 0 1 -26.425 19.481h-176.16a26.425 19.481 0 0 1 -26.425 -19.481v-266.45a26.425 19.481 0 0 1 26.425 -19.481" fill="#fff8ff" fill-rule="evenodd" stroke="#000" stroke-linecap="round" stroke-linejoin="round" stroke-width="1.0151"/>
  <path d="m120.07 622.66c23.728-0.22016 43.197 15.835 43.458 35.838s-75.082 73.876-98.81 74.096-43.197-15.835-43.458-35.838c-0.25875-19.817 74.682-73.579 98.183-74.087" fill="#fca" fill-rule="evenodd" stroke="#000" stroke-linecap="round" stroke-linejoin="round" stroke-width=".84841"/>
  <path transform="matrix(-.99592 -.090243 0 1 0 0)" d="m-325.53 481.47h176.17a26.425 19.481 0 0 1 26.425 19.481v266.45a26.425 19.481 0 0 1 -26.425 19.481h-176.17a26.425 19.481 0 0 1 -26.425 -19.481v-266.45a26.425 19.481 0 0 1 26.425 -19.481" fill="#ff4408" fill-rule="evenodd" stroke="#000" stroke-linecap="round" stroke-linejoin="round" stroke-width="3.5681"/>
  <path transform="matrix(-.99575 -.092117 0 1 0 0)" d="m-323.22 482.78 173.72 4.347c13.876 0 25.048 8.4067 25.048 18.849v257.81c0 10.442-11.171 18.849-25.048 18.849l-163.99 2.5117c-13.876 0-29.538 2.3591-29.538-8.0833v-281.66c0-10.442 5.9318-12.624 19.808-12.624z" fill="url(#h)" fill-rule="evenodd" opacity=".67029"/>
  <path d="m316.63 511.88-172.24-13.208c-13.817-1.2842-24.941 9.1232-24.941 19.614v259.01c0 10.491 6.6519 23.715 20.469 24.999l180.43 15.454c13.817 1.2842 17.488-0.13765 17.488-10.629l-1.4906-284.47c0-16.482-5.9066-9.4882-19.724-10.772z" fill="url(#c)" fill-rule="evenodd" opacity=".67029"/>
  <path d="m108.91 613.16c0.21247 17.99-11.815 26.306-9.0262 44.025 5.1025 32.42 1.0046 15.953 1.5069 19.045 1.9549 12.032 4.6011 28.56 4.6011 40.81 0 6.1007 6.5531 10.203 11.96 10.203h14.316c6.0267 0 7.7403-2.1084 11.302-6.4926 3.3398-4.1112 6.5976-6.5165 7.5345-11.13 1.3032-6.4168 2.4341-11.023-2.2604-13.913-8.8479-5.4459-4.3313-4.9277 3.7673-7.42 4.5208-1.3913 8.1193-5.4093 11.302-8.3475 5.5682-5.1409-7.3201-12.641-9.0414-13.913-3.2577-2.4061-9.4309-3.0222-13.562-5.565-5.9828-3.6824 7.1577-3.1689 9.7949-3.71 6.6172-1.3576 11.567-2.793 16.576-6.4925 5.376-3.9707-1.1306-9.5072-3.7673-11.13-5.7492-3.5386-12.146-4.6375-18.836-4.6375h6.0276c7.0703 0 9.5677-3.7837 15.069-6.4926 4.2063-2.0712 3.0138-10.52 3.0138-14.84 0-3.9868-13.951-4.6376-16.576-4.6376h-36.166c-4.6566 0-4.0107-0.78481-7.5345 4.6376z" fill="#fca" fill-rule="evenodd" stroke="#000" stroke-width=".56082"/>
  <path transform="matrix(.99682 -.079685 0 1 0 0)" d="m394.53 532.95h196.34a29.451 19.172 0 0 1 29.451 19.172v262.22a29.451 19.172 0 0 1 -29.451 19.172h-196.34a29.451 19.172 0 0 1 -29.451 -19.172v-262.22a29.451 19.172 0 0 1 29.451 -19.172" fill="#fff8ff" fill-rule="evenodd" stroke="#000" stroke-linecap="round" stroke-linejoin="round" stroke-width="1.0631"/>
  <path transform="matrix(.99623 -.08675 0 1 0 0)" d="m411.6 541.07h180.38a27.057 19.175 0 0 1 27.057 19.175v262.26a27.057 19.175 0 0 1 -27.057 19.175h-180.38a27.057 19.175 0 0 1 -27.057 -19.175v-262.26a27.057 19.175 0 0 1 27.057 -19.175" fill="#fff8ff" fill-rule="evenodd" stroke="#000" stroke-linecap="round" stroke-linejoin="round" stroke-width="1.0191"/>
  <path d="m614.09 637.62c-24.975-0.19628-45.468 14.114-45.743 31.943s79.03 65.847 104.01 66.043 45.468-14.114 45.743-31.943c0.27236-17.663-78.608-65.582-103.34-66.035" fill="#fca" fill-rule="evenodd" stroke="#000" stroke-linecap="round" stroke-linejoin="round" stroke-width=".82177"/>
  <path transform="matrix(.99561 -.093638 0 1 0 0)" d="m429.06 548.36h165.55a24.833 18.996 0 0 1 24.833 18.996v259.82a24.833 18.996 0 0 1 -24.833 18.996h-165.55a24.833 18.996 0 0 1 -24.833 -18.996v-259.82a24.833 18.996 0 0 1 24.833 -18.996" fill="#fff8ff" fill-rule="evenodd" stroke="#000" stroke-linecap="round" stroke-linejoin="round" stroke-width=".97174"/>
  <path transform="matrix(.99618 -.087311 0 1 0 0)" d="m414.65 546.69h179.17a26.876 19.17 0 0 1 26.876 19.17v262.19a26.876 19.17 0 0 1 -26.876 19.17h-179.17a26.876 19.17 0 0 1 -26.876 -19.17v-262.19a26.876 19.17 0 0 1 26.876 -19.17" fill="#ff4408" fill-rule="evenodd" stroke="#000" stroke-linecap="round" stroke-linejoin="round" stroke-width="3.766"/>
  <path d="m595.89 496.69-194.14 18.369c-13.531-1.1986 0.16981 8.7008 0.16981 18.493l4.4718 249.21c0 9.7922-10.72 22.367 2.8114 23.565l184.45-13.152c12.041-1.7826 20.699-7.9555 20.699-17.748l0.7453-256.66c0.7453-13.519-5.6765-20.876-19.208-22.075z" fill="url(#g)" fill-rule="evenodd" opacity=".67029"/>
  <path d="m622.02 621.44c-0.24747 15.269 6.4271 25.028 3.6232 40.119-0.49043 2.6398 0.98122 16.33 0.39617 18.954-2.2769 10.213 1.67 21.471 1.67 31.868 0 5.1781-9.923 5.8893-16.22 5.8893h-16.674c-7.0195 0-9.0154-1.7895-13.164-5.5107-3.89-3.4895-7.6844-5.5311-8.7757-9.4469-1.5178-5.4464-2.835-9.3562 2.6327-11.809 10.305-4.6224 5.0449-4.1826-4.3878-6.298-5.2656-1.1809-9.4568-4.5913-13.164-7.0852-6.4854-4.3635 8.526-10.73 10.531-11.809 3.7943-2.0423 10.984-2.5652 15.796-4.7235 6.9684-3.1256-8.3368-2.6897-11.408-3.149-7.7072-1.1523-13.473-2.3706-19.307-5.5107-6.2616-3.3702 1.3168-8.0694 4.3878-9.4469 6.6963-3.0036 14.147-3.9362 21.939-3.9362h-7.0206c-8.235 0-11.144-3.2114-17.551-5.5107-4.8992-1.758-3.5103-8.929-3.5103-12.596 0-3.3839 16.249-3.9362 19.307-3.9362h42.123c5.4238 0 4.6714-0.66613 8.7757 3.9362z" fill="#fca" fill-rule="evenodd" stroke="#000" stroke-width=".55762"/>
  <path d="m370.61 506.79h5.0604a27.544 25.744 0 0 1 27.544 25.744v262.8a27.544 25.744 0 0 1 -27.544 25.744h-5.0604a27.544 25.744 0 0 1 -27.544 -25.744v-262.8a27.544 25.744 0 0 1 27.544 -25.744" fill="#ff4408" fill-rule="evenodd" stroke="#000" stroke-linecap="round" stroke-linejoin="round" stroke-width="3.5608"/>
  <path d="m600.97 496.91-175.96 18.156c-14.436-1.2782-20.095 12.807-20.095 23.249l-0.7453 268.24c0 10.442-8.9797 1.2457 5.4562 2.5239l185.05-18.902c14.436 1.2782 18.605-10.571 18.605-21.014l1.8243-242.16c0-10.442 0.30305-28.822-14.133-30.1z" fill="url(#e)" fill-rule="evenodd" opacity=".67029"/>
  <path d="m370.61 506.79h5.0604a27.544 25.744 0 0 1 27.544 25.744v262.8a27.544 25.744 0 0 1 -27.544 25.744h-5.0604a27.544 25.744 0 0 1 -27.544 -25.744v-262.8a27.544 25.744 0 0 1 27.544 -25.744" fill="url(#d)" fill-rule="evenodd" stroke="#000" stroke-linecap="round" stroke-linejoin="round" stroke-width="3.5608"/>
 </g>
</svg>
